<svg id="SvgjsSvg1072" width="288" height="288" xmlns="http://www.w3.org/2000/svg" version="1.1" xmlns:xlink="http://www.w3.org/1999/xlink" xmlns:svgjs="http://svgjs.com/svgjs"><defs id="SvgjsDefs1073"></defs><g id="SvgjsG1074"><svg xmlns="http://www.w3.org/2000/svg" viewBox="0 0 128 128" width="288" height="288"><path fill="#00d09c" d="M32.1 98H18c-3.3 0-6-2.7-6-6V37c0-3.3 2.7-6 6-6h12.8c1.9-1.5 3.9-2.8 6-4H18c-5.5 0-10 4.5-10 10v55c0 5.5 4.5 10 10 10h20.7c-2.3-1.1-4.5-2.5-6.6-4zM109 27H77.2c2.1 1.2 4.1 2.5 6 4H109c3.3 0 6 2.7 6 6v55c0 3.3-2.7 6-6 6H81.9c-2.1 1.5-4.3 2.9-6.6 4H109c5.5 0 10-4.5 10-10V37c0-5.5-4.5-10-10-10z" class="color3B97D3 svgShape"></path><path fill="#5367ff" d="M57 27.8C76.9 27.8 93.2 44 93.2 64S76.9 100.2 57 100.2 20.8 83.9 20.8 64 37.1 27.8 57 27.8m0-4c-22.1 0-40.2 18-40.2 40.2s18 40.2 40.2 40.2 40.2-18 40.2-40.2S79.1 23.8 57 23.8z" class="color2C3E50 svgShape"></path><path fill="#00d09c" d="M57 39.2c13.7 0 24.8 11.1 24.8 24.8S70.7 88.8 57 88.8 32.2 77.7 32.2 64 43.3 39.2 57 39.2m0-4c-15.9 0-28.8 12.9-28.8 28.8S41.1 92.8 57 92.8 85.8 79.9 85.8 64 72.9 35.2 57 35.2z" class="color3B97D3 svgShape"></path><path fill="#5367ff" d="M84 25v-2.3c0-1.1 1.2-1.7 2.3-1.7H102c1.1 0 2 .6 2 1.7V25h4v-2.3c0-3.3-2.7-5.7-6-5.7H86.3C83 17 80 19.4 80 22.7V25h4z" class="color2C3E50 svgShape"></path><path fill="#00d09c" d="M64 47.5c-4.5 0-8.2 3.7-8.2 8.2S59.5 64 64 64s8.2-3.7 8.2-8.2-3.7-8.3-8.2-8.3zM64 62c-3.4 0-6.2-2.8-6.2-6.2s2.8-6.2 6.2-6.2 6.2 2.8 6.2 6.2S67.4 62 64 62z" class="color3B97D3 svgShape"></path><circle cx="103.7" cy="41" r="4.3" fill="#00d09c" class="color3B97D3 svgShape"></circle><path fill="#5367ff" d="M89 21h2v4h-2zM97 21h2v4h-2z" class="color2C3E50 svgShape"></path></svg></g></svg>